<svg width="74" height="74" viewBox="0 0 74 74" fill="none" xmlns="http://www.w3.org/2000/svg">
<g clip-path="url(#clip0)">
<path d="M58.7574 42.9502C57.8545 48.6252 50.7607 54.6872 45.2146 54.8162C44.8277 54.8162 44.4407 54.9452 44.1828 55.2031C43.9248 55.3321 43.6669 55.4611 43.5379 55.848C41.6032 59.4594 42.635 62.297 45.8595 64.6186C49.5999 67.3271 55.5329 64.6186 58.4994 62.168C65.9802 55.977 73.5899 45.272 73.203 35.0825C74.4928 28.2464 74.2348 20.8948 72.3001 14.8328C71.0103 10.9635 67.27 9.02879 63.4006 8.77083C59.5312 8.51266 51.5346 7.35207 48.0522 9.67347C44.5697 11.9953 44.3118 16.5095 43.9248 20.3787C43.5379 24.635 42.3771 32.6319 45.9885 35.9853C49.5999 39.2098 59.9182 35.7274 58.7574 42.9502Z" fill="white"/>
<path d="M16.1944 42.9502C15.2915 48.6252 8.19791 54.6872 2.65162 54.8162C2.26468 54.8162 1.87774 54.9452 1.61979 55.2031C1.36162 55.3321 1.10387 55.4611 0.974682 55.848C-0.959997 59.4594 0.0718301 62.297 3.2963 64.6186C7.03668 67.3271 12.9697 64.6186 15.9364 62.168C23.4172 55.977 31.0269 45.2718 30.64 35.0825C31.9298 28.2464 31.6718 20.8948 29.7373 14.8328C28.4476 10.9635 24.7072 9.02879 20.8376 8.77083C16.9682 8.51266 8.97157 7.35207 5.48914 9.67347C2.00693 11.9953 1.74877 16.5095 1.36183 20.3787C0.974894 24.635 -0.185915 32.6319 3.42549 35.9853C7.03689 39.2098 17.4842 35.7274 16.1944 42.9502Z" fill="white"/>
</g>
<defs>
<clipPath id="clip0">
<rect width="74" height="74" fill="white" transform="translate(74 74) rotate(-180)"/>
</clipPath>
</defs>
</svg>
