<svg width="100" height="100" viewBox="0 0 100 100" fill="none" xmlns="http://www.w3.org/2000/svg">
<g clip-path="url(#clip0)">
<path d="M99.9023 29.4002C99.6679 24.0869 98.8087 20.434 97.5779 17.2687C96.3082 13.9089 94.3546 10.9007 91.7952 8.40008C89.2946 5.86052 86.2667 3.88717 82.9456 2.63723C79.7621 1.40637 76.1283 0.547134 70.8148 0.312867C65.4618 0.0587578 63.7624 0 50.1855 0C36.6086 0 34.9093 0.0587578 29.5761 0.293026C24.2626 0.527294 20.6098 1.3873 17.4453 2.61739C14.0846 3.88717 11.0765 5.84068 8.57586 8.40008C6.0363 10.9007 4.06371 13.9286 2.81301 17.2497C1.58216 20.434 0.722916 24.067 0.488648 29.3805C0.234539 34.7334 0.175781 36.4329 0.175781 50.0098C0.175781 63.5867 0.234539 65.286 0.468808 70.6192C0.703076 75.9326 1.56308 79.5855 2.79394 82.7508C4.06371 86.1107 6.0363 89.1188 8.57586 91.6194C11.0765 94.159 14.1045 96.1323 17.4254 97.3823C20.6098 98.6131 24.2429 99.4724 29.557 99.7067C34.8894 99.9417 36.5895 99.9997 50.1664 99.9997C63.7433 99.9997 65.4428 99.9417 70.776 99.7067C76.0893 99.4724 79.7422 98.6131 82.9068 97.3823C89.6272 94.784 94.9407 89.4706 97.539 82.7508C98.7691 79.5664 99.6291 75.9326 99.8633 70.6192C100.098 65.286 100.156 63.5867 100.156 50.0098C100.156 36.4329 100.137 34.7334 99.9023 29.4002ZM90.897 70.2285C90.6818 75.1123 89.8615 77.7495 89.1778 79.5077C87.4975 83.8641 84.0399 87.3217 79.6835 89.0021C77.9253 89.6857 75.269 90.5061 70.4044 90.7206C65.1299 90.9555 63.5479 91.0136 50.2054 91.0136C36.8628 91.0136 35.261 90.9555 30.0056 90.7206C25.122 90.5061 22.4847 89.6857 20.7266 89.0021C18.5586 88.2008 16.5853 86.931 14.9836 85.2706C13.323 83.649 12.0532 81.6955 11.252 79.5276C10.5683 77.7694 9.74796 75.1123 9.53353 70.2484C9.2985 64.9739 9.2405 63.3913 9.2405 50.0486C9.2405 36.7061 9.2985 35.1044 9.53353 29.8498C9.74796 24.966 10.5683 22.3287 11.252 20.5706C12.0532 18.4018 13.323 16.4293 15.0033 14.8268C16.6241 13.1663 18.5777 11.8966 20.7463 11.0961C22.5045 10.4123 25.1616 9.59202 30.0255 9.37683C35.3 9.14256 36.8826 9.0838 50.2245 9.0838C63.5869 9.0838 65.1687 9.14256 70.4241 9.37683C75.3079 9.59202 77.9452 10.4123 79.7033 11.0961C81.8713 11.8966 83.8446 13.1663 85.4463 14.8268C87.1068 16.4484 88.3766 18.4018 89.1778 20.5706C89.8615 22.3287 90.6818 24.9851 90.897 29.8498C91.1313 35.1241 91.1901 36.7061 91.1901 50.0486C91.1901 63.3913 91.1313 64.9541 90.897 70.2285Z" fill="#787779"/>
<path d="M50.1862 24.3218C36.0041 24.3218 24.4976 35.8276 24.4976 50.0104C24.4976 64.1931 36.0041 75.699 50.1862 75.699C64.3689 75.699 75.8748 64.1931 75.8748 50.0104C75.8748 35.8276 64.3689 24.3218 50.1862 24.3218ZM50.1862 66.6739C40.9856 66.6739 33.5226 59.2118 33.5226 50.0104C33.5226 40.8091 40.9856 33.3468 50.1862 33.3468C59.3874 33.3468 66.8497 40.8091 66.8497 50.0104C66.8497 59.2118 59.3874 66.6739 50.1862 66.6739Z" fill="#787779"/>
<path d="M82.888 23.3062C82.888 26.618 80.2027 29.3033 76.8902 29.3033C73.5784 29.3033 70.8931 26.618 70.8931 23.3062C70.8931 19.9937 73.5784 17.3091 76.8902 17.3091C80.2027 17.3091 82.888 19.9937 82.888 23.3062Z" fill="#787779"/>
</g>
<defs>
<clipPath id="clip0">
<rect width="100" height="100" fill="white"/>
</clipPath>
</defs>
</svg>
