<svg width="100" height="100" viewBox="0 0 100 100" fill="none" xmlns="http://www.w3.org/2000/svg">
<g clip-path="url(#clip0)">
<path d="M99.9747 100V99.9961H99.9997V63.3211C99.9997 45.3794 96.1373 31.5586 75.1622 31.5586C65.0789 31.5586 58.3122 37.0919 55.5497 42.3378H55.2581V33.2337H35.3706V99.9961H56.0789V66.9378C56.0789 58.2337 57.7289 49.817 68.5081 49.817C79.1289 49.817 79.2873 59.7503 79.2873 67.4961V100H99.9747Z" fill="#787779"/>
<path d="M1.6499 33.2373H22.3832V99.9998H1.6499V33.2373Z" fill="#787779"/>
<path d="M12.0084 0C5.37917 0 0 5.37917 0 12.0084C0 18.6375 5.37917 24.1292 12.0084 24.1292C18.6375 24.1292 24.0167 18.6375 24.0167 12.0084C24.0125 5.37917 18.6333 0 12.0084 0Z" fill="#787779"/>
</g>
<defs>
<clipPath id="clip0">
<rect width="100" height="100" fill="white"/>
</clipPath>
</defs>
</svg>
